<?xml version="1.0" standalone="no"?><!DOCTYPE svg PUBLIC "-//W3C//DTD SVG 1.1//EN" "http://www.w3.org/Graphics/SVG/1.1/DTD/svg11.dtd"><svg t="1675225654121" class="icon" viewBox="0 0 1024 1024" version="1.1" xmlns="http://www.w3.org/2000/svg" p-id="2536" width="32" height="32" xmlns:xlink="http://www.w3.org/1999/xlink"><path d="M758.518519 830.577778H265.481481c-10.42963 0-18.962963-8.533333-18.962962-18.962963s8.533333-18.962963 18.962962-18.962963h493.037038c10.42963 0 18.962963 8.533333 18.962962 18.962963s-8.533333 18.962963-18.962962 18.962963z" fill="#0DB8F2" p-id="2537"></path><path d="M984.367407 203.472593c0-20.859259-17.066667-37.925926-37.925926-37.925926s-37.925926 17.066667-37.925925 37.925926V813.131852c0 52.337778-50.062222 94.814815-111.691852 94.814815H224.331852c-61.62963 0-111.691852-42.477037-111.691852-94.814815s50.062222-94.814815 111.691852-94.814815h587.662222c20.859259 0 37.925926-17.066667 37.925926-37.925926V77.558519c0-20.859259-17.066667-37.925926-37.925926-37.925926H261.878519c-124.017778 0-224.900741 100.882963-224.900741 224.90074v548.598519c0 94.056296 84.195556 170.666667 187.543703 170.666667h572.491852c103.348148 0 187.543704-76.61037 187.543704-170.666667v-0.379259-609.28z m-722.488888-87.988149h512.189629v526.980741H224.331852c-41.908148 0-80.402963 12.705185-111.691852 33.943704V264.533333c0.18963-82.10963 66.939259-149.048889 149.238519-149.048889z" fill="#048FFA" p-id="2538"></path></svg>